<svg width="57" height="56" viewBox="0 0 57 56" fill="none" xmlns="http://www.w3.org/2000/svg">
<rect x="0.300293" width="56" height="56" rx="28" fill="#F9E6F1"/>
<path d="M21.3132 38V35.856C23.2118 34.0213 24.8438 32.3893 26.2092 30.96C27.5958 29.5093 28.6625 28.1973 29.4092 27.024C30.1558 25.8293 30.5292 24.72 30.5292 23.696C30.5292 22.6293 30.2412 21.776 29.6652 21.136C29.0892 20.496 28.2572 20.176 27.1692 20.176C26.3798 20.176 25.6545 20.4 24.9932 20.848C24.3532 21.296 23.7558 21.8293 23.2012 22.448L21.1532 20.4C22.0918 19.3973 23.0625 18.6293 24.0652 18.096C25.0678 17.5413 26.2625 17.264 27.6492 17.264C29.6118 17.264 31.1692 17.8293 32.3212 18.96C33.4945 20.0907 34.0812 21.6053 34.0812 23.504C34.0812 24.6987 33.7398 25.9253 33.0572 27.184C32.3958 28.4213 31.4998 29.6907 30.3692 30.992C29.2598 32.2933 28.0332 33.6587 26.6892 35.088C27.2225 35.0453 27.7985 35.0027 28.4172 34.96C29.0358 34.896 29.5905 34.864 30.0812 34.864H35.0732V38H21.3132Z" fill="#CA1D80"/>
</svg>
