<svg width="57" height="56" viewBox="0 0 57 56" fill="none" xmlns="http://www.w3.org/2000/svg">
<rect x="0.5" width="56" height="56" rx="28" fill="#F9E6F1"/>
<path d="M27.9769 38.384C26.3342 38.384 24.9475 38.1067 23.8169 37.552C22.7075 36.976 21.7902 36.2933 21.0649 35.504L22.8249 33.136C23.4435 33.7547 24.1475 34.288 24.9369 34.736C25.7262 35.1627 26.6329 35.376 27.6569 35.376C28.7662 35.376 29.6622 35.1093 30.3449 34.576C31.0489 34.0213 31.4009 33.264 31.4009 32.304C31.4009 31.6 31.2195 30.992 30.8569 30.48C30.5155 29.9467 29.9075 29.5413 29.0329 29.264C28.1795 28.9867 26.9742 28.848 25.4169 28.848V26.16C27.4222 26.16 28.8089 25.8507 29.5769 25.232C30.3449 24.6133 30.7289 23.8347 30.7289 22.896C30.7289 22.0427 30.4622 21.3813 29.9289 20.912C29.3955 20.4213 28.6595 20.176 27.7209 20.176C26.9315 20.176 26.2062 20.3573 25.5449 20.72C24.8835 21.0613 24.2435 21.52 23.6249 22.096L21.7369 19.824C22.6115 19.056 23.5395 18.4373 24.5209 17.968C25.5235 17.4987 26.6329 17.264 27.8489 17.264C29.8115 17.264 31.4009 17.7333 32.6169 18.672C33.8329 19.5893 34.4409 20.912 34.4409 22.64C34.4409 23.7707 34.1209 24.7307 33.4809 25.52C32.8622 26.288 31.9982 26.8853 30.8889 27.312V27.44C32.0835 27.76 33.0862 28.3467 33.8969 29.2C34.7075 30.0533 35.1129 31.152 35.1129 32.496C35.1129 33.7333 34.7822 34.7893 34.1209 35.664C33.4809 36.5387 32.6169 37.2107 31.5289 37.68C30.4622 38.1493 29.2782 38.384 27.9769 38.384Z" fill="#CA1D80"/>
</svg>
