<svg width="57" height="56" viewBox="0 0 57 56" fill="none" xmlns="http://www.w3.org/2000/svg">
<rect x="0.899902" width="56" height="56" rx="28" fill="#F9E6F1"/>
<path d="M28.4088 38.384C26.7661 38.384 25.3794 38.1067 24.2488 37.552C23.1394 36.976 22.2114 36.3147 21.4648 35.568L23.1608 33.2C23.7794 33.776 24.4728 34.288 25.2408 34.736C26.0088 35.1627 26.9048 35.376 27.9288 35.376C29.0594 35.376 29.9981 35.0347 30.7448 34.352C31.4914 33.6693 31.8648 32.7093 31.8648 31.472C31.8648 30.256 31.5234 29.3173 30.8408 28.656C30.1581 27.9947 29.2514 27.664 28.1208 27.664C27.4594 27.664 26.9048 27.76 26.4568 27.952C26.0088 28.1227 25.4754 28.4107 24.8568 28.816L23.0968 27.696L23.7048 17.648H34.5848V20.752H26.9048L26.4888 25.68C26.9154 25.4667 27.3314 25.3067 27.7368 25.2C28.1634 25.072 28.6434 25.008 29.1768 25.008C30.3501 25.008 31.4168 25.232 32.3768 25.68C33.3368 26.128 34.1048 26.8213 34.6808 27.76C35.2781 28.6987 35.5768 29.904 35.5768 31.376C35.5768 32.848 35.2354 34.1067 34.5528 35.152C33.8914 36.1973 33.0168 36.9973 31.9288 37.552C30.8408 38.1067 29.6674 38.384 28.4088 38.384Z" fill="#CA1D80"/>
</svg>
