<svg width="81" height="93" viewBox="0 0 81 93" fill="none" xmlns="http://www.w3.org/2000/svg">
<rect x="0.5" width="80" height="80" rx="40" fill="#F9E6F1"/>
<path d="M39.5677 56.1188C39.6687 56.0724 39.8107 56.0713 39.9138 56.1162L68.3026 68.476C68.4238 68.5288 68.4527 68.6277 68.3683 68.7008L40.7075 92.6767C40.5949 92.7744 40.3482 92.7743 40.2358 92.6766L12.6314 68.6974C12.5488 68.6256 12.5749 68.5289 12.6913 68.4753L39.5677 56.1188Z" fill="#F9E6F1"/>
<g clip-path="url(#clip0_1_2377)">
<path d="M40.5 20C32.76 20 26.5 26.26 26.5 34C26.5 37.48 27.5 40.74 29.32 43.68C31.22 46.76 33.72 49.4 35.64 52.48C36.58 53.98 37.26 55.38 37.98 57C38.5 58.1 38.92 60 40.5 60C42.08 60 42.5 58.1 43 57C43.74 55.38 44.4 53.98 45.34 52.48C47.26 49.42 49.76 46.78 51.66 43.68C53.5 40.74 54.5 37.48 54.5 34C54.5 26.26 48.24 20 40.5 20ZM40.5 39.5C37.74 39.5 35.5 37.26 35.5 34.5C35.5 31.74 37.74 29.5 40.5 29.5C43.26 29.5 45.5 31.74 45.5 34.5C45.5 37.26 43.26 39.5 40.5 39.5Z" fill="#CA1D80"/>
</g>
<defs>
<clipPath id="clip0_1_2377">
<rect width="40" height="40" fill="white" transform="translate(20.5 20)"/>
</clipPath>
</defs>
</svg>
