<svg width="81" height="93" viewBox="0 0 81 93" fill="none" xmlns="http://www.w3.org/2000/svg">
<rect x="0.5" width="80" height="80" rx="40" fill="#F9E6F1"/>
<path d="M39.5677 56.1188C39.6687 56.0724 39.8107 56.0713 39.9138 56.1162L68.3026 68.476C68.4238 68.5288 68.4527 68.6277 68.3683 68.7008L40.7075 92.6767C40.5949 92.7744 40.3482 92.7743 40.2358 92.6766L12.6314 68.6974C12.5488 68.6256 12.5749 68.5289 12.6913 68.4753L39.5677 56.1188Z" fill="#F9E6F1"/>
<g clip-path="url(#clip0_1_2357)">
<path d="M29.2963 36.2777H33V49.2407H29.2963V36.2777ZM44.1111 41.8333H47.8148V49.2407H44.1111V41.8333ZM36.7037 30.7221H40.4074V49.2407H36.7037V30.7221ZM55.2222 30.7407V25.1851H51.5185V30.7407H45.963V34.4444H51.5185V39.9999H55.2222V34.4444H60.7778V30.7407H55.2222ZM51.5185 52.9629H25.5926V27.037H47.8148V23.3333H25.5926C23.5556 23.3333 21.8889 24.9999 21.8889 27.037V52.9629C21.8889 54.9999 23.5556 56.6666 25.5926 56.6666H51.5185C53.5556 56.6666 55.2222 54.9999 55.2222 52.9629V43.7036H51.5185V52.9629Z" fill="#CA1D80"/>
</g>
<defs>
<clipPath id="clip0_1_2357">
<rect width="40" height="40" fill="white" transform="translate(20.5 20)"/>
</clipPath>
</defs>
</svg>
