<svg width="81" height="93" viewBox="0 0 81 93" fill="none" xmlns="http://www.w3.org/2000/svg">
<rect x="0.5" width="80" height="80" rx="40" fill="#F9E6F1"/>
<path d="M39.5677 56.1188C39.6687 56.0724 39.8107 56.0713 39.9138 56.1162L68.3026 68.476C68.4238 68.5288 68.4527 68.6277 68.3683 68.7008L40.7075 92.6767C40.5949 92.7744 40.3482 92.7743 40.2358 92.6766L12.6314 68.6974C12.5488 68.6256 12.5749 68.5289 12.6913 68.4753L39.5677 56.1188Z" fill="#F9E6F1"/>
<g clip-path="url(#clip0_1_2388)">
<path d="M54.7444 26.2208L52.0556 23.5319C50.3222 21.7986 47.5 21.7986 45.7667 23.5319L39.8111 29.4875L20.5 48.7986V57.7764H29.4778L48.9 38.3542L54.7444 32.5097C56.5 30.7764 56.5 27.9542 54.7444 26.2208ZM27.6333 53.3319H24.9444V50.643L44.1889 31.3986L46.8778 34.0875L27.6333 53.3319ZM38.2778 57.7764L47.1667 48.8875H60.5V57.7764H38.2778Z" fill="#CA1D80"/>
</g>
<defs>
<clipPath id="clip0_1_2388">
<rect width="40" height="40" fill="white" transform="translate(20.5 20)"/>
</clipPath>
</defs>
</svg>
