<svg width="81" height="93" viewBox="0 0 81 93" fill="none" xmlns="http://www.w3.org/2000/svg">
<rect x="0.5" width="80" height="80" rx="40" fill="#F9E6F1"/>
<path d="M39.5677 56.1188C39.6687 56.0724 39.8107 56.0713 39.9138 56.1162L68.3026 68.476C68.4238 68.5288 68.4527 68.6277 68.3683 68.7008L40.7075 92.6767C40.5949 92.7744 40.3482 92.7743 40.2358 92.6766L12.6314 68.6974C12.5488 68.6256 12.5749 68.5289 12.6913 68.4753L39.5677 56.1188Z" fill="#F9E6F1"/>
<g clip-path="url(#clip0_1_2367)">
<path d="M42.1667 25C33.8834 25 27.1667 31.7167 27.1667 40H22.1667L28.6501 46.4833L28.7667 46.7167L35.5001 40H30.5001C30.5001 33.55 35.7167 28.3333 42.1667 28.3333C48.6167 28.3333 53.8334 33.55 53.8334 40C53.8334 46.45 48.6167 51.6667 42.1667 51.6667C38.9501 51.6667 36.0334 50.35 33.9334 48.2333L31.5667 50.6C34.2834 53.3167 38.0167 55 42.1667 55C50.4501 55 57.1667 48.2833 57.1667 40C57.1667 31.7167 50.4501 25 42.1667 25ZM40.5001 33.3333V41.6667L47.6334 45.9L48.8334 43.8833L43.0001 40.4167V33.3333H40.5001Z" fill="#CA1D80"/>
</g>
<defs>
<clipPath id="clip0_1_2367">
<rect width="40" height="40" fill="white" transform="translate(20.5 20)"/>
</clipPath>
</defs>
</svg>
