<svg width="81" height="93" viewBox="0 0 81 93" fill="none" xmlns="http://www.w3.org/2000/svg">
<rect x="0.5" width="80" height="80" rx="40" fill="#F9E6F1"/>
<path d="M39.5677 56.1188C39.6687 56.0724 39.8107 56.0713 39.9138 56.1162L68.3026 68.476C68.4238 68.5288 68.4527 68.6277 68.3683 68.7008L40.7075 92.6767C40.5949 92.7744 40.3482 92.7743 40.2358 92.6766L12.6314 68.6974C12.5488 68.6256 12.5749 68.5289 12.6913 68.4753L39.5677 56.1188Z" fill="#F9E6F1"/>
<g clip-path="url(#clip0_1_2398)">
<path d="M50.5 32H30.5C28.3 32 26.5 33.8 26.5 36V56C26.5 58.2 28.3 60 30.5 60H50.5C52.7 60 54.5 58.2 54.5 56V36C54.5 33.8 52.7 32 50.5 32ZM42.5 57H38.5V54H42.5V57ZM42.5 52H38.5C38.5 49 33.5 46 33.5 42C33.5 38.14 36.64 35 40.5 35C44.36 35 47.5 38.14 47.5 42C47.5 46 42.5 49 42.5 52ZM52.5 29H28.5C28.5 27.34 29.84 26 31.5 26H49.5C51.16 26 52.5 27.34 52.5 29ZM50.5 23H30.5C30.5 21.34 31.84 20 33.5 20H47.5C49.16 20 50.5 21.34 50.5 23Z" fill="#CA1D80"/>
</g>
<defs>
<clipPath id="clip0_1_2398">
<rect width="40" height="40" fill="white" transform="translate(20.5 20)"/>
</clipPath>
</defs>
</svg>
