<svg width="24" height="24" viewBox="0 0 24 24" fill="none" xmlns="http://www.w3.org/2000/svg">
<rect width="24" height="24" rx="12" fill="#F9E6F1"/>
<path d="M10.5 14.0859L15.7969 8.78906L16.5 9.49219L10.5 15.4922L7.71094 12.7031L8.41406 12L10.5 14.0859Z" fill="#CA1D80"/>
<path d="M10.5 14.0859L10.197 14.389L10.5 14.692L10.803 14.389L10.5 14.0859ZM15.7969 8.78906L16.0999 8.48602L15.7969 8.18297L15.4938 8.48602L15.7969 8.78906ZM16.5 9.49219L16.803 9.79523L17.1061 9.49219L16.803 9.18914L16.5 9.49219ZM10.5 15.4922L10.197 15.7952L10.5 16.0983L10.803 15.7952L10.5 15.4922ZM7.71094 12.7031L7.40789 12.4001L7.10485 12.7031L7.40789 13.0062L7.71094 12.7031ZM8.41406 12L8.71711 11.697L8.41406 11.3939L8.11102 11.697L8.41406 12ZM10.803 14.389L16.0999 9.09211L15.4938 8.48602L10.197 13.7829L10.803 14.389ZM15.4938 9.09211L16.197 9.79523L16.803 9.18914L16.0999 8.48602L15.4938 9.09211ZM16.197 9.18914L10.197 15.1891L10.803 15.7952L16.803 9.79523L16.197 9.18914ZM10.803 15.1891L8.01398 12.4001L7.40789 13.0062L10.197 15.7952L10.803 15.1891ZM8.01398 13.0062L8.71711 12.303L8.11102 11.697L7.40789 12.4001L8.01398 13.0062ZM8.11102 12.303L10.197 14.389L10.803 13.7829L8.71711 11.697L8.11102 12.303Z" fill="#CA1D80"/>
</svg>
